grf
version=1
nRows=6
nColumns=37
inDegrees=no
endheader
time	ground_force_1_vx	ground_force_1_vy	ground_force_1_vz	ground_force_1_px	ground_force_1_py	ground_force_1_pz	ground_moment_1_mx	ground_moment_1_my	ground_moment_1_mz	ground_force_2_vx	ground_force_2_vy	ground_force_2_vz	ground_force_2_px	ground_force_2_py	ground_force_2_pz	ground_moment_2_mx	ground_moment_2_my	ground_moment_2_mz	ground_force_3_vx	ground_force_3_vy	ground_force_3_vz	ground_force_3_px	ground_force_3_py	ground_force_3_pz	ground_moment_3_mx	ground_moment_3_my	ground_moment_3_mz	ground_force_4_vx	ground_force_4_vy	ground_force_4_vz	ground_force_4_px	ground_force_4_py	ground_force_4_pz	ground_moment_4_mx	ground_moment_4_my	ground_moment_4_mz
      5.10000000	      0.00000000	     -0.00000000	      0.00000000	      0.00000000	      0.00000000	      0.00000000	      0.00000000	      0.00000000	      0.00000000	     38.60472107	      9.36649513	   -105.60079956	   -346.85825819	  -1011.66589198	      0.00000000	      0.00000000	      0.00000000	    677.99643199	     -6.41154073	    -18.88466970	   -772.70208740	   -320.38789617	   -788.40364354	      0.00000000	      0.00000000	     -0.00000000	  -2288.65977572	      0.00000000	     -0.00000000	      0.00000000	      0.00000000	      0.00000000	      0.00000000	      0.00000000	      0.00000000	      0.00000000
      5.11000000	      0.00000000	     -0.00000000	      0.00000000	      0.00000000	      0.00000000	      0.00000000	      0.00000000	      0.00000000	      0.00000000	     26.94157410	      9.46318626	   -135.09736633	   -345.57683266	  -1006.42990968	      0.00000000	      0.00000000	      0.00000000	   1277.20134843	     -6.95144293	    -18.75605713	   -753.05700684	   -319.48427443	   -788.96340121	      0.00000000	     -0.00000000	     -0.00000000	  -2279.79233261	      0.00000000	     -0.00000000	      0.00000000	      0.00000000	      0.00000000	      0.00000000	      0.00000000	      0.00000000	      0.00000000
      5.12000000	      0.00000000	     -0.00000000	      0.00000000	      0.00000000	      0.00000000	      0.00000000	      0.00000000	      0.00000000	      0.00000000	     20.07236481	      9.00971889	   -157.90133667	   -341.82696506	  -1003.44599352	      0.00000000	      0.00000000	      0.00000000	   1643.29436102	     -7.99970640	    -17.84097983	   -729.89025879	   -318.79104345	   -789.10656286	      0.00000000	      0.00000000	     -0.00000000	  -1974.19153449	      0.00000000	     -0.00000000	      0.00000000	      0.00000000	      0.00000000	      0.00000000	      0.00000000	      0.00000000	      0.00000000
      5.13000000	      0.00000000	     -0.00000000	      0.00000000	      0.00000000	      0.00000000	      0.00000000	      0.00000000	      0.00000000	      0.00000000	     22.95688438	      4.93922853	   -166.25930786	   -344.44861871	   -999.49334057	      0.00000000	      0.00000000	      0.00000000	   1588.46491973	     -8.81340262	    -15.98622436	   -702.05230713	   -318.15779800	   -789.75408540	      0.00000000	      0.00000000	      0.00000000	  -1793.26692225	      0.00000000	     -0.00000000	      0.00000000	      0.00000000	      0.00000000	      0.00000000	      0.00000000	      0.00000000	      0.00000000
      5.14000000	      0.00000000	     -0.00000000	      0.00000000	      0.00000000	      0.00000000	      0.00000000	      0.00000000	      0.00000000	      0.00000000	     23.09087372	     -0.02195417	   -165.87857056	   -342.11041431	   -997.49074815	      0.00000000	     -0.00000000	      0.00000000	   1632.76064980	     -9.11429814	    -14.02793805	   -675.16906738	   -317.33067588	   -789.82208225	      0.00000000	     -0.00000000	     -0.00000000	  -1691.96323091	      0.00000000	     -0.00000000	      0.00000000	      0.00000000	      0.00000000	      0.00000000	      0.00000000	      0.00000000	      0.00000000
      5.15000000	      0.00000000	     -0.00000000	      0.00000000	      0.00000000	      0.00000000	      0.00000000	      0.00000000	      0.00000000	      0.00000000	     17.02480125	     -1.70067465	   -162.16662598	   -334.20630214	   -994.55137832	      0.00000000	      0.00000000	      0.00000000	   1837.21014269	     -8.90716853	    -12.58509367	   -651.45776367	   -316.85070901	   -789.69731348	      0.00000000	      0.00000000	     -0.00000000	  -1721.88707616	      0.00000000	     -0.00000000	      0.00000000	      0.00000000	      0.00000000	      0.00000000	      0.00000000	      0.00000000	      0.00000000
